<?xml version="1.0" standalone="no"?>
<!DOCTYPE svg PUBLIC "-//W3C//DTD SVG 20010904//EN"
 "http://www.w3.org/TR/2001/REC-SVG-20010904/DTD/svg10.dtd">
<svg version="1.0" xmlns="http://www.w3.org/2000/svg"
 width="150.000000pt" height="150.000000pt" viewBox="0 0 150.000000 150.000000"
 preserveAspectRatio="xMidYMid meet">

<g transform="translate(0.000000,150.000000) scale(0.100000,-0.100000)"
fill="#000000" stroke="none">
<path d="M0 750 l0 -750 750 0 750 0 0 750 0 750 -750 0 -750 0 0 -750z m200
416 c0 -3 -4 -8 -10 -11 -5 -3 -10 -1 -10 4 0 6 5 11 10 11 6 0 10 -2 10 -4z
m-20 -86 c0 -5 -5 -10 -11 -10 -5 0 -7 5 -4 10 3 6 8 10 11 10 2 0 4 -4 4 -10z
m977 -216 c-3 -3 -12 -4 -19 -1 -8 3 -5 6 6 6 11 1 17 -2 13 -5z m-850 -20
c-3 -3 -12 -4 -19 -1 -8 3 -5 6 6 6 11 1 17 -2 13 -5z m957 -162 c3 -5 -1 -9
-9 -9 -8 0 -15 4 -15 9 0 4 4 8 9 8 6 0 12 -4 15 -8z m-757 -78 c-3 -3 -12 -4
-19 -1 -8 3 -5 6 6 6 11 1 17 -2 13 -5z m-182 -214 c3 -6 -1 -7 -9 -4 -18 7
-21 14 -7 14 6 0 13 -4 16 -10z m55 -42 c-15 -5 -27 -5 -34 2 -8 8 -6 9 8 4
13 -5 17 -4 13 3 -5 7 1 9 15 5 l22 -5 -24 -9z m69 -78 c-8 -4 -37 -13 -66
-20 l-52 -12 -3 -46 -3 -47 -102 -3 c-57 -1 -103 0 -103 3 0 3 15 18 33 34
l32 30 -34 35 -33 34 172 0 c95 0 167 -4 159 -8z m921 0 c0 -5 -14 -20 -31
-33 l-31 -24 38 -36 39 -36 -107 -1 -108 0 0 49 0 49 -52 12 c-96 23 -82 27
86 28 91 1 166 -3 166 -8z m-220 -84 c0 -18 -3 -48 -6 -65 l-7 -31 -393 0
-394 0 0 65 0 65 400 0 400 0 0 -34z"/>
<path d="M540 171 c0 -42 35 -55 42 -16 6 28 -8 35 -15 8 -4 -17 -5 -17 -6 0
-1 17 -21 25 -21 8z"/>
<path d="M595 168 c-9 -22 2 -38 25 -38 11 0 20 9 23 23 4 21 4 21 6 -2 1 -24
1 -24 17 -5 8 10 13 13 9 7 -3 -7 -1 -13 4 -13 6 0 11 8 11 18 0 14 -8 19 -35
20 -22 1 -35 -3 -35 -11 0 -8 -4 -7 -10 3 -8 12 -10 12 -15 -2z"/>
<path d="M700 156 c0 -19 4 -22 25 -18 25 4 37 42 14 42 -6 0 -8 -8 -5 -17 6
-17 5 -17 -8 0 -18 23 -26 21 -26 -7z"/>
<path d="M763 156 c1 -16 9 -32 17 -34 12 -4 13 -2 4 9 -7 8 -14 23 -17 34 -4
13 -5 9 -4 -9z"/>
<path d="M814 165 c-7 -18 3 -35 22 -35 8 0 14 10 15 23 0 22 0 22 9 1 12 -30
48 -38 56 -12 3 11 3 22 0 25 -3 4 -6 1 -6 -6 0 -7 -5 -9 -10 -6 -6 4 -8 11
-5 16 4 5 -12 9 -35 9 -26 0 -43 -5 -46 -15z"/>
<path d="M930 160 c0 -11 5 -20 10 -20 6 0 10 9 10 20 0 11 -4 20 -10 20 -5 0
-10 -9 -10 -20z"/>
</g>
</svg>
