 <svg version="1.0" xmlns="http://www.w3.org/2000/svg" width="700.000000pt" height="700.000000pt" viewBox="0 0 700.000000 700.000000" preserveAspectRatio="xMidYMid meet">
<metadata>
Created by potrace 1.12, written by Peter Selinger 2001-2015
</metadata>
<g transform="translate(0.000000,700.000000) scale(0.100000,-0.100000)" fill="#000000" stroke="none">
<path d="M696 6605 c-19 -29 -14 -45 13 -45 24 0 44 24 39 47 -5 28 -33 27
-52 -2z"></path>
<path d="M6233 6614 c-8 -21 9 -48 32 -52 27 -6 37 12 24 41 -14 30 -46 36
-56 11z"></path>
<path d="M671 6489 c-17 -17 -29 -35 -25 -40 19 -31 114 20 101 54 -10 26 -42
20 -76 -14z"></path>
<path d="M6234 6505 c-4 -8 -1 -21 5 -29 16 -19 68 -39 85 -33 23 9 7 45 -27
62 -38 19 -56 19 -63 0z"></path>
<path d="M727 6413 c-18 -5 -62 -42 -55 -47 2 -1 11 -8 21 -15 15 -12 20 -11
37 4 13 12 30 16 55 13 40 -5 40 -5 19 27 -16 24 -36 29 -77 18z"></path>
<path d="M6181 6402 c-16 -30 -14 -32 23 -32 18 0 39 -7 46 -15 16 -19 46 -19
54 0 8 23 -29 54 -73 61 -33 5 -41 3 -50 -14z"></path>
<path d="M682 6316 c-3 -5 5 -18 18 -28 16 -13 39 -18 84 -18 34 0 66 -4 72
-9 5 -5 28 -11 52 -14 59 -7 55 13 -10 43 -56 25 -205 43 -216 26z"></path>
<path d="M6210 6322 c-48 -2 -79 -7 -85 -16 -6 -7 -25 -17 -42 -20 -30 -7 -65
-35 -47 -37 27 -3 80 4 89 12 5 5 39 9 75 9 54 0 70 4 85 20 26 29 11 35 -75
32z"></path>
<path d="M757 6224 c-4 -4 -7 -15 -7 -25 0 -14 8 -16 63 -12 57 4 84 -1 127
-25 52 -30 61 -32 80 -22 10 5 28 10 39 10 12 0 21 5 21 10 0 6 -6 10 -14 10
-7 0 -19 7 -26 15 -7 8 -27 15 -44 15 -18 0 -37 5 -43 11 -12 12 -185 24 -196
13z"></path>
<path d="M6028 6213 c-6 -7 -25 -13 -43 -13 -18 0 -38 -7 -45 -15 -7 -8 -19
-15 -26 -15 -8 0 -14 -4 -14 -10 0 -5 13 -10 28 -10 15 0 33 -5 40 -12 9 -9
15 -9 24 0 7 7 19 12 27 12 8 0 23 8 34 18 15 13 38 17 98 18 86 1 99 5 79 29
-11 13 -31 15 -102 13 -56 -2 -93 -8 -100 -15z"></path>
<path d="M6151 6117 c-6 -8 -41 -17 -81 -21 -38 -4 -72 -11 -75 -17 -8 -13
-79 -11 -92 2 -10 10 -83 31 -83 23 0 -11 50 -54 63 -54 9 0 21 -9 27 -20 7
-14 21 -20 44 -20 20 0 40 8 51 20 10 11 28 20 40 20 13 0 28 7 35 15 7 8 25
15 39 15 36 0 70 25 55 40 -8 8 -14 7 -23 -3z"></path>
<path d="M810 6112 c0 -16 25 -32 51 -32 15 0 32 -7 39 -15 7 -8 23 -15 36
-15 13 0 33 -9 44 -20 12 -12 33 -20 55 -20 24 0 37 6 45 20 6 11 16 20 22 20
10 0 58 45 58 55 0 6 -75 -16 -85 -26 -12 -12 -79 -11 -91 1 -6 6 -41 13 -78
17 -36 3 -69 10 -72 14 -7 11 -24 12 -24 1z"></path>
<path d="M1186 6031 c-4 -5 -21 -18 -39 -27 -25 -14 -57 -18 -141 -19 -107 -1
-133 -9 -104 -32 7 -6 31 -13 53 -16 22 -3 53 -9 68 -13 38 -9 107 14 116 40
5 13 23 23 52 30 28 7 44 17 44 26 0 17 -40 26 -49 11z"></path>
<path d="M5744 6029 c-9 -16 6 -27 51 -37 30 -6 41 -13 43 -30 2 -16 10 -22
27 -22 13 0 27 -4 30 -10 3 -5 21 -10 40 -10 19 0 37 5 40 10 3 6 26 10 50 10
43 0 81 22 70 40 -3 5 -46 6 -95 3 -92 -6 -161 9 -201 43 -19 17 -45 18 -55 3z"></path>
<path d="M1214 5940 c-12 -4 -24 -15 -27 -24 -4 -11 -19 -16 -45 -16 -21 0
-43 -5 -49 -11 -9 -9 -19 -9 -40 -1 -15 6 -47 14 -71 17 -42 7 -44 6 -40 -16
2 -20 10 -25 43 -27 23 -2 49 -12 62 -24 22 -20 24 -20 42 -4 10 9 35 20 55
23 20 3 41 14 46 23 5 9 23 23 40 30 16 7 30 19 30 26 0 16 -15 17 -46 4z"></path>
<path d="M5720 5937 c0 -9 9 -19 20 -22 11 -4 32 -17 48 -29 15 -13 41 -26 57
-30 17 -4 38 -15 48 -23 15 -15 19 -15 37 2 12 10 40 21 63 24 34 5 43 10 45
30 4 22 2 23 -40 16 -24 -3 -53 -11 -66 -18 -18 -8 -28 -8 -42 1 -11 7 -32 12
-47 12 -15 0 -36 9 -47 19 -29 27 -76 38 -76 18z"></path>
<path d="M3382 5863 c-13 -2 -26 -11 -29 -19 -3 -8 -11 -14 -18 -14 -7 0 -37
-16 -66 -35 -30 -19 -58 -35 -64 -35 -6 0 -15 -9 -20 -19 -31 -61 -77 -130
-90 -135 -8 -3 -15 -18 -15 -34 0 -15 -4 -32 -9 -37 -4 -6 -5 -68 -1 -138 l7
-129 37 -37 c20 -20 36 -43 36 -49 0 -19 53 -82 68 -82 7 0 15 -7 19 -15 3 -9
20 -22 37 -31 17 -8 45 -22 61 -32 25 -14 57 -17 191 -17 159 0 161 0 200 28
22 15 45 27 52 27 11 0 122 108 122 119 0 3 9 23 19 45 31 66 35 86 17 86 -9
0 -16 -3 -16 -8 0 -4 -13 -22 -30 -40 -16 -18 -30 -38 -30 -44 0 -22 -64 -89
-98 -103 -19 -9 -46 -26 -59 -39 -28 -28 -68 -36 -184 -36 -110 0 -139 6 -174
36 -16 13 -33 24 -39 24 -18 0 -95 66 -119 102 -50 73 -67 132 -67 226 0 98
11 141 46 189 13 17 24 38 24 46 0 8 17 26 38 39 20 14 51 37 67 52 17 14 46
31 65 37 19 6 39 15 45 20 5 5 51 9 103 9 105 0 183 -20 223 -56 14 -13 30
-24 36 -24 22 0 65 -44 85 -87 18 -38 20 -57 16 -133 -4 -59 -11 -98 -22 -114
-9 -14 -16 -32 -16 -40 0 -8 -15 -26 -32 -40 -34 -27 -37 -30 -75 -72 -26 -28
-80 -33 -90 -8 -10 26 15 168 32 180 8 6 15 20 15 31 0 10 4 23 9 29 10 10 31
103 31 134 0 17 -7 20 -47 20 -27 0 -53 -6 -63 -15 -14 -13 -20 -11 -49 15
-38 35 -52 37 -76 10 -10 -11 -26 -20 -36 -20 -19 0 -99 -85 -99 -105 0 -6
-11 -17 -24 -23 -18 -8 -25 -21 -30 -56 -4 -25 -11 -48 -17 -51 -5 -4 -9 -34
-9 -67 0 -77 32 -128 81 -128 48 0 97 29 135 78 l34 45 0 -40 c0 -93 142 -124
228 -49 73 63 140 155 124 170 -2 3 3 8 12 12 9 3 16 16 16 28 0 12 5 27 10
32 6 6 14 43 17 82 6 77 -5 106 -54 145 -13 10 -23 26 -23 35 -1 21 -35 46
-75 56 -16 4 -45 22 -63 39 l-33 32 -137 1 c-75 2 -147 0 -160 -3z m188 -315
c0 -26 -3 -48 -8 -48 -4 0 -12 -15 -18 -32 -42 -121 -74 -171 -107 -166 -21 3
-22 8 -20 82 2 63 7 83 22 97 10 10 27 39 36 66 10 26 27 56 38 66 19 16 21
16 38 1 14 -12 19 -31 19 -66z"></path>
<path d="M1160 5817 c-19 -12 -43 -26 -52 -30 -10 -3 -18 -11 -18 -17 0 -6
-27 -10 -64 -10 -71 0 -99 -17 -76 -45 20 -24 91 -19 133 9 19 13 44 27 55 30
11 4 27 18 36 31 8 13 26 25 38 27 13 2 23 8 23 13 0 20 -42 15 -75 -8z"></path>
<path d="M5747 5834 c-10 -11 3 -24 23 -24 11 0 27 -11 36 -25 9 -13 25 -27
36 -31 11 -3 36 -17 55 -30 65 -44 173 -27 133 21 -8 10 -31 15 -70 15 -39 0
-62 5 -70 15 -7 8 -16 15 -21 15 -4 0 -25 11 -45 25 -36 25 -64 31 -77 19z"></path>
<path d="M1233 5685 c-17 -19 -40 -35 -51 -35 -11 0 -25 -7 -32 -15 -16 -19
-146 -21 -153 -2 -3 9 -9 9 -23 1 -35 -21 -28 -34 19 -34 27 0 49 -6 57 -15
14 -17 76 -20 85 -4 4 5 17 15 28 20 12 5 36 18 52 29 17 11 37 23 45 26 17 6
41 50 32 59 -12 12 -30 3 -59 -30z"></path>
<path d="M5696 5711 c-8 -12 12 -66 21 -57 3 3 13 0 21 -6 17 -14 49 -33 79
-47 11 -5 24 -15 28 -20 9 -16 71 -13 85 4 8 9 30 15 56 15 46 0 54 9 29 30
-12 10 -19 10 -27 2 -18 -18 -143 -15 -158 3 -7 8 -21 15 -32 15 -11 0 -34 16
-51 35 -32 36 -42 41 -51 26z"></path>
<path d="M1880 5648 c-1 -2 -1 -68 -2 -148 l-1 -145 509 0 509 0 0 145 0 145
-507 3 c-280 1 -508 1 -508 0z"></path>
<path d="M4094 5637 c-2 -7 -3 -74 -2 -148 l3 -134 510 0 510 0 0 145 0 145
-508 3 c-411 2 -509 0 -513 -11z"></path>
<path d="M1247 5585 l-34 -37 -83 0 c-45 0 -87 5 -93 11 -13 13 -87 15 -87 3
0 -23 30 -40 79 -46 34 -3 58 -11 63 -21 11 -19 27 -19 47 -2 9 8 42 19 73 26
51 11 60 16 74 47 26 55 4 66 -39 19z"></path>
<path d="M5690 5596 c0 -46 19 -64 77 -77 32 -7 66 -19 75 -27 17 -14 22 -14
68 13 14 8 42 15 62 15 34 0 58 19 58 44 0 10 -79 6 -85 -4 -3 -5 -23 -10 -44
-10 -20 0 -43 -6 -50 -12 -11 -10 -14 -10 -18 0 -3 6 -20 12 -38 12 -26 0 -39
7 -55 30 -22 31 -50 40 -50 16z"></path>
<path d="M1265 5502 c-11 -2 -42 -22 -69 -43 -42 -34 -55 -39 -101 -39 -39 0
-56 5 -70 20 -10 11 -27 20 -38 20 -11 0 -29 7 -39 17 -20 18 -23 7 -8 -31 6
-17 14 -24 24 -20 9 4 32 -7 55 -25 52 -42 103 -42 168 -1 26 17 51 37 56 45
4 8 14 15 21 15 19 0 41 29 30 39 -5 4 -18 6 -29 3z"></path>
<path d="M5690 5485 c0 -9 8 -19 18 -22 9 -4 38 -25 65 -47 39 -32 57 -40 100
-44 40 -3 56 0 66 12 7 9 19 16 27 16 7 0 17 7 22 17 6 10 16 14 26 10 12 -5
20 1 27 20 11 29 4 42 -13 25 -7 -7 -22 -12 -35 -12 -12 0 -27 -9 -33 -20 -9
-16 -21 -20 -69 -20 -53 0 -63 4 -109 40 -51 41 -92 52 -92 25z"></path>
<path d="M5725 5370 c-6 -10 71 -87 99 -100 6 -3 24 -14 40 -25 48 -32 241
-26 208 7 -7 7 -36 10 -71 9 -34 -1 -62 2 -66 8 -3 6 -21 11 -38 11 -24 0 -47
13 -90 50 -61 52 -71 57 -82 40z"></path>
<path d="M1171 5325 c-38 -36 -55 -45 -84 -45 -20 0 -39 -5 -42 -11 -4 -6 -31
-9 -61 -8 -51 3 -87 -12 -71 -28 4 -4 45 -7 91 -7 72 -1 89 2 115 22 16 12 34
22 39 22 10 0 92 83 92 93 0 19 -36 2 -79 -38z"></path>
<path d="M1190 5206 c-8 -21 -16 -26 -44 -26 -25 0 -35 -5 -39 -20 -3 -13 -14
-21 -34 -22 -60 -3 -119 4 -134 18 -20 18 -63 18 -78 1 -15 -19 -4 -27 41 -27
21 0 38 -4 38 -10 0 -5 9 -10 19 -10 11 0 23 -4 26 -10 3 -5 24 -10 45 -10 21
0 42 5 45 10 3 6 14 10 24 10 10 0 24 7 31 15 7 8 20 15 29 15 24 1 73 48 69
67 -5 27 -27 26 -38 -1z"></path>
<path d="M5757 5223 c-20 -19 26 -81 66 -87 6 -1 19 -6 27 -11 46 -30 133 -45
145 -25 3 6 15 10 26 10 10 0 19 5 19 10 0 6 17 10 38 10 45 0 56 8 41 27 -15
17 -66 17 -76 -1 -5 -8 -28 -15 -58 -17 -87 -4 -106 -1 -112 21 -4 15 -14 20
-39 20 -28 0 -36 5 -44 25 -9 25 -21 31 -33 18z"></path>
<path d="M2437 4622 c-268 -268 -487 -492 -487 -497 0 -6 44 -54 98 -108 l97
-97 493 493 492 492 -103 103 -102 102 -488 -488z m560 356 c35 -34 63 -67 63
-73 0 -5 -205 -215 -455 -465 l-455 -455 -65 65 c-36 35 -65 69 -65 75 0 10
900 915 910 915 2 0 33 -28 67 -62z"></path>
<path d="M3962 5007 c-50 -51 -92 -95 -92 -97 0 -7 973 -980 980 -980 10 0
190 185 190 195 0 13 -962 975 -975 975 -6 0 -52 -42 -103 -93z m565 -419
c249 -249 453 -458 453 -463 0 -6 -29 -40 -65 -75 l-65 -65 -455 455 c-250
250 -455 462 -455 471 0 16 111 129 127 129 4 0 212 -204 460 -452z"></path>
<path d="M1121 5066 c-14 -14 -32 -26 -42 -26 -9 0 -22 -7 -29 -15 -17 -21
-46 -19 -79 6 -20 15 -39 19 -72 17 -56 -4 -60 -28 -6 -43 24 -7 43 -20 50
-35 16 -33 61 -39 77 -11 6 12 17 21 25 21 20 0 82 39 89 55 3 10 20 15 45 15
22 0 42 4 46 9 7 12 -2 18 -45 26 -30 5 -39 2 -59 -19z"></path>
<path d="M5782 5082 c-38 -11 -30 -27 16 -30 25 -2 45 -9 48 -17 7 -17 69 -55
89 -55 8 0 19 -9 25 -21 16 -29 61 -22 77 12 9 19 24 29 50 34 50 9 56 14 42
31 -18 21 -92 18 -122 -6 -30 -24 -60 -26 -77 -5 -7 8 -18 15 -26 15 -7 0 -24
11 -38 25 -25 25 -42 28 -84 17z"></path>
<path d="M1190 4965 c-7 -8 -17 -15 -23 -15 -5 0 -20 -11 -33 -25 -13 -14 -34
-25 -48 -25 -14 0 -28 -4 -31 -10 -8 -12 -157 -13 -170 -1 -14 13 -75 24 -75
14 0 -26 48 -53 92 -53 28 0 50 -6 58 -15 7 -8 27 -15 45 -15 18 0 38 7 45 15
7 8 18 15 26 15 7 0 18 9 24 19 5 11 24 22 42 26 35 7 101 62 92 77 -8 13 -30
9 -44 -7z"></path>
<path d="M5746 4972 c-9 -15 57 -70 92 -77 18 -4 37 -15 42 -26 6 -10 19 -19
29 -19 10 0 24 -7 31 -15 7 -8 25 -15 40 -15 15 0 33 7 40 15 8 10 30 15 65
15 45 0 55 4 69 25 9 13 16 27 16 30 0 9 -62 -5 -77 -17 -12 -10 -133 -5 -190
7 -17 4 -42 18 -54 31 -12 13 -28 24 -35 24 -6 0 -17 7 -24 15 -14 16 -36 20
-44 7z"></path>
<path d="M1165 4834 c-49 -33 -113 -44 -189 -33 -82 12 -156 11 -156 -1 0 -5
15 -10 34 -10 18 0 39 -6 45 -14 7 -8 35 -17 64 -21 29 -4 58 -12 65 -17 9 -8
18 -6 30 6 10 9 28 16 39 16 11 0 26 7 33 15 7 8 17 15 23 15 6 0 18 7 28 16
15 14 27 15 76 6 62 -11 95 0 51 17 -15 5 -29 15 -33 20 -12 20 -71 12 -110
-15z"></path>
<path d="M5687 4837 c-15 -13 -25 -26 -22 -29 3 -2 30 -1 61 5 46 8 58 6 73
-7 10 -9 22 -16 28 -16 6 0 16 -7 23 -15 7 -8 22 -15 34 -15 12 0 32 -7 44
-16 15 -10 27 -13 35 -6 7 5 33 13 59 16 25 4 52 14 58 21 7 8 28 15 46 15 19
0 34 5 34 10 0 12 -82 12 -160 0 -69 -10 -144 5 -186 36 -40 31 -90 31 -127 1z"></path>
<path d="M3360 4835 c0 -3 0 -330 0 -727 l0 -723 137 0 138 0 0 725 0 725
-137 3 c-76 1 -138 0 -138 -3z"></path>
<path d="M1170 4753 c-8 -3 -31 -19 -51 -34 -20 -16 -41 -29 -47 -29 -5 0 -15
-7 -22 -15 -7 -8 -29 -15 -50 -15 -21 0 -43 7 -50 15 -7 8 -20 15 -29 15 -9 0
-29 7 -45 15 -38 20 -59 19 -81 -5 -14 -16 -15 -20 -4 -23 8 -2 29 -9 48 -15
19 -6 38 -9 42 -6 5 3 23 -11 40 -30 36 -42 42 -43 76 -16 14 11 35 20 46 20
11 0 42 18 68 40 54 45 64 48 79 20 8 -15 21 -20 54 -20 27 0 48 -6 56 -16 14
-16 79 -16 70 1 -3 5 -10 9 -16 7 -7 -1 -14 4 -18 13 -3 10 -19 15 -45 15 -34
0 -45 6 -68 35 -15 19 -30 35 -33 34 -3 0 -12 -3 -20 -6z"></path>
<path d="M5757 4725 c-22 -27 -35 -35 -61 -35 -19 0 -39 -7 -46 -15 -7 -8 -21
-15 -32 -15 -10 0 -16 -4 -13 -10 9 -15 61 -12 75 5 8 9 29 15 56 15 33 0 46
5 54 20 15 29 36 25 77 -15 20 -19 53 -40 73 -45 21 -6 43 -17 50 -25 19 -22
33 -19 69 19 21 21 39 32 51 29 10 -3 21 0 24 6 4 6 20 11 37 11 33 0 37 10
11 33 -20 19 -48 22 -56 8 -4 -5 -24 -12 -45 -16 -22 -4 -45 -13 -52 -21 -15
-19 -83 -18 -99 1 -7 8 -17 15 -23 15 -6 0 -25 13 -42 29 -48 47 -75 48 -108
6z"></path>
<path d="M1155 4600 c-10 -11 -27 -20 -37 -20 -10 0 -21 -7 -24 -15 -4 -8 -16
-15 -29 -15 -12 0 -42 -15 -66 -33 -24 -19 -54 -39 -66 -45 -26 -14 -85 -16
-98 -3 -6 5 -24 12 -42 16 -29 6 -31 5 -26 -17 6 -22 65 -88 78 -88 4 0 18 9
32 20 14 11 32 20 40 20 8 0 26 9 40 20 14 11 32 20 39 20 7 0 34 14 58 32 44
31 86 42 199 55 30 3 53 1 60 -6 6 -6 26 -11 45 -11 18 0 42 -5 53 -11 32 -16
53 -4 38 22 -9 18 -17 21 -51 16 -28 -4 -41 -1 -45 9 -3 8 -11 14 -19 14 -7 0
-18 9 -24 20 -9 17 -21 20 -74 20 -50 0 -67 -4 -81 -20z"></path>
<path d="M5673 4600 c-3 -11 -11 -20 -17 -20 -7 0 -18 -6 -24 -12 -7 -7 -29
-11 -49 -9 -36 3 -53 -9 -53 -38 0 -9 7 -11 23 -6 101 32 287 33 326 2 7 -6
20 -12 28 -13 8 -2 25 -12 37 -23 12 -12 29 -21 38 -21 8 0 27 -9 41 -20 14
-11 32 -20 40 -20 8 0 26 -9 40 -20 14 -11 28 -20 32 -20 4 0 25 18 46 40 58
59 50 89 -15 55 -35 -18 -88 -19 -119 -2 -12 6 -44 29 -70 49 -27 20 -55 34
-63 31 -7 -3 -17 2 -20 11 -3 9 -16 16 -29 16 -12 0 -30 9 -40 20 -15 16 -31
20 -82 20 -56 0 -66 -3 -70 -20z"></path>
<path d="M799 4587 c-27 -23 -42 -51 -32 -61 4 -3 17 3 29 15 13 12 33 27 45
33 12 6 22 16 23 21 2 19 -39 14 -65 -8z"></path>
<path d="M6117 4603 c-10 -9 13 -33 31 -33 9 0 26 -12 38 -27 20 -25 23 -26
30 -10 14 36 -72 97 -99 70z"></path>
<path d="M1209 4484 c-20 -19 -76 -35 -146 -41 -44 -4 -53 -8 -53 -24 0 -11
-7 -22 -15 -25 -25 -10 -17 -24 14 -24 16 0 34 6 40 14 6 7 30 16 52 19 22 3
48 12 57 20 48 44 249 48 284 7 18 -22 33 -26 43 -10 10 15 -36 60 -62 60 -12
0 -25 5 -28 10 -3 6 -43 10 -88 10 -62 0 -87 -4 -98 -16z"></path>
<path d="M5590 4490 c-8 -5 -24 -10 -36 -10 -29 0 -71 -47 -56 -62 9 -9 17 -7
35 10 48 45 244 39 306 -9 13 -11 38 -19 56 -19 20 0 35 -6 39 -15 3 -9 18
-15 36 -15 33 0 38 11 15 30 -8 7 -15 19 -15 26 0 10 -14 14 -49 14 -28 0 -53
5 -56 10 -3 6 -18 10 -32 10 -13 0 -36 9 -50 20 -21 16 -41 20 -102 20 -42 0
-83 -5 -91 -10z"></path>
<path d="M1230 4393 c-8 -3 -22 -11 -30 -18 -8 -7 -31 -15 -50 -18 -68 -11
-95 -20 -123 -43 -29 -25 -61 -31 -71 -15 -4 5 -24 12 -47 16 -31 5 -45 3 -60
-11 -10 -9 -19 -20 -19 -24 0 -4 27 -10 59 -14 33 -4 65 -13 71 -21 13 -16 40
-20 40 -7 0 4 20 14 45 21 24 7 49 19 55 26 6 8 26 17 43 20 18 4 42 16 54 27
19 18 32 20 107 16 61 -3 91 -9 104 -21 10 -9 22 -17 27 -17 5 0 19 -10 32
-21 19 -19 23 -20 29 -6 3 8 4 26 2 39 -2 18 -12 25 -49 33 -25 5 -54 17 -64
25 -18 15 -128 24 -155 13z"></path>
<path d="M5620 4393 c-8 -3 -21 -11 -29 -17 -8 -6 -35 -16 -60 -21 -40 -9 -46
-14 -49 -39 -5 -41 16 -57 35 -28 9 12 20 22 26 22 6 0 18 7 28 16 12 11 45
18 104 22 76 4 89 2 113 -15 15 -11 39 -24 52 -28 14 -4 30 -12 37 -17 23 -19
86 -47 93 -43 4 3 13 -2 20 -10 11 -14 14 -13 26 4 10 14 31 22 72 27 74 9 78
12 47 36 -20 16 -34 18 -65 13 -22 -4 -42 -11 -46 -16 -9 -16 -42 -10 -71 14
-29 24 -94 47 -133 47 -13 0 -32 8 -42 17 -20 18 -128 29 -158 16z"></path>
<path d="M1223 4240 c-13 -5 -23 -14 -23 -20 0 -5 -18 -10 -39 -10 -30 0 -48
-7 -73 -30 -32 -30 -81 -40 -93 -20 -3 6 -17 10 -31 10 -13 0 -24 -4 -24 -10
0 -5 8 -10 18 -10 11 0 27 -9 38 -21 15 -16 25 -19 54 -14 19 4 42 12 50 19
34 29 206 51 278 36 74 -16 162 -21 162 -10 0 5 -6 10 -14 10 -7 0 -19 6 -25
14 -6 7 -36 16 -67 19 -37 4 -64 13 -78 26 -24 23 -91 28 -133 11z"></path>
<path d="M5624 4231 c-13 -14 -39 -24 -75 -28 -50 -6 -98 -28 -99 -45 0 -10
121 2 135 12 13 11 189 2 240 -11 22 -6 47 -17 55 -24 8 -7 31 -16 50 -20 29
-5 39 -2 54 14 11 12 27 21 38 21 10 0 18 5 18 10 0 6 -11 10 -24 10 -14 0
-28 -4 -31 -10 -12 -20 -58 -10 -92 20 -22 20 -44 30 -65 30 -17 0 -40 8 -50
17 -12 10 -41 18 -76 21 -48 3 -60 0 -78 -17z"></path>
<path d="M846 4206 c-19 -16 -27 -30 -23 -40 4 -9 10 -16 15 -16 16 0 64 58
58 69 -10 15 -17 13 -50 -13z"></path>
<path d="M6084 4218 c-9 -13 52 -71 66 -63 18 11 10 31 -20 53 -34 25 -36 26
-46 10z"></path>
<path d="M1285 4130 c-3 -5 -21 -10 -40 -10 -19 0 -37 -4 -40 -10 -3 -5 -13
-10 -22 -10 -9 0 -24 -6 -32 -14 -9 -7 -41 -16 -71 -19 -45 -4 -60 -1 -79 14
-13 10 -30 19 -37 19 -8 0 -23 5 -33 12 -15 9 -24 8 -46 -6 -46 -30 -21 -47
72 -46 11 0 24 -7 27 -15 3 -8 14 -15 25 -15 11 0 23 -4 26 -10 8 -13 62 -13
71 1 3 6 15 9 25 6 11 -3 22 0 27 6 4 7 34 21 67 31 33 11 67 26 76 33 9 7 39
13 69 13 43 0 59 -5 79 -24 27 -25 96 -43 105 -28 7 11 -16 31 -70 60 -33 17
-58 22 -117 22 -42 0 -79 -4 -82 -10z"></path>
<path d="M5485 4112 c-27 -15 -51 -35 -53 -45 -3 -16 1 -17 35 -11 21 3 52 17
70 30 36 27 125 34 152 11 18 -15 100 -42 116 -38 5 1 14 -4 20 -11 5 -8 29
-20 53 -27 35 -12 47 -12 66 -1 13 7 29 9 35 6 5 -4 14 2 20 12 7 13 23 18 62
20 60 2 67 7 53 29 -19 30 -42 39 -64 25 -11 -6 -27 -12 -35 -12 -8 0 -23 -9
-32 -20 -15 -17 -25 -18 -77 -13 -34 3 -68 12 -77 19 -8 8 -23 14 -32 14 -9 0
-19 5 -22 10 -3 6 -21 10 -40 10 -19 0 -37 5 -40 10 -3 6 -41 10 -83 9 -63 0
-86 -5 -127 -27z"></path>
<path d="M1290 4035 c-7 -8 -27 -17 -46 -21 -19 -3 -34 -10 -34 -15 0 -14 -71
-40 -91 -34 -9 3 -20 1 -24 -5 -8 -12 -47 -13 -60 -1 -12 11 -81 21 -89 14 -9
-10 15 -33 34 -33 10 0 32 -11 48 -25 33 -27 79 -33 88 -11 3 8 20 17 39 20
18 4 38 13 45 21 7 8 16 13 20 10 4 -3 22 3 41 12 28 14 44 15 108 6 97 -14
109 -17 123 -31 16 -16 45 -15 55 2 4 8 17 14 28 13 22 -2 33 29 16 46 -7 7
-16 5 -30 -7 -20 -18 -51 -16 -51 3 0 5 -31 13 -70 17 -39 4 -75 13 -81 20
-15 18 -53 18 -69 -1z"></path>
<path d="M5621 4036 c-6 -7 -40 -17 -76 -21 -35 -3 -69 -13 -76 -21 -15 -18
-28 -18 -51 3 -13 12 -22 13 -29 6 -18 -18 -6 -48 18 -48 13 0 28 -6 35 -13
16 -16 28 -15 49 4 27 24 161 39 225 25 29 -7 58 -18 64 -26 7 -8 27 -17 45
-21 19 -3 36 -12 39 -20 9 -24 58 -16 89 14 16 15 40 27 55 27 17 0 27 5 27
15 0 11 -9 14 -35 11 -19 -1 -43 -7 -52 -12 -27 -15 -115 1 -154 27 -19 13
-45 26 -59 30 -13 3 -29 12 -36 20 -15 18 -63 18 -78 0z"></path>
<path d="M1327 3870 c-27 -5 -56 -15 -65 -22 -38 -29 -65 -38 -121 -38 -61 0
-103 15 -125 45 -8 11 -18 15 -25 10 -9 -5 3 -23 40 -61 52 -53 55 -54 110
-54 38 0 61 5 69 15 7 8 25 15 40 15 15 0 40 10 56 23 27 20 38 22 171 22 119
-1 145 -4 161 -18 20 -18 57 -23 66 -9 3 5 -8 21 -24 37 -23 22 -35 26 -58 22
-16 -3 -33 -2 -39 4 -13 13 -197 20 -256 9z"></path>
<path d="M5405 3867 c-70 -12 -141 -49 -130 -68 10 -15 47 -10 67 8 15 13 43
16 161 17 133 1 144 0 171 -21 16 -13 41 -23 56 -23 15 0 33 -7 40 -15 8 -10
31 -15 69 -15 55 0 58 1 110 54 29 29 49 56 43 60 -5 3 -15 -1 -22 -9 -39 -47
-168 -61 -225 -24 -16 10 -41 24 -55 29 -37 17 -206 20 -285 7z"></path>
<path d="M1390 3773 c-8 -3 -26 -14 -39 -24 -16 -13 -40 -19 -76 -19 -37 0
-60 -6 -78 -20 -30 -24 -60 -26 -77 -5 -7 8 -22 15 -33 15 -11 0 -28 7 -38 16
-20 18 -49 13 -49 -9 0 -20 77 -67 110 -67 16 0 32 -4 35 -10 8 -13 52 -13 60
1 4 5 19 7 34 4 19 -4 32 -1 41 10 7 8 23 15 36 15 23 0 33 3 81 28 13 7 32
12 42 12 11 0 23 5 26 10 7 11 168 14 179 3 15 -15 81 -32 90 -23 6 6 18 10
28 10 10 0 18 4 18 9 0 12 -26 21 -63 21 -18 1 -43 7 -57 15 -25 14 -237 20
-270 8z"></path>
<path d="M5332 3768 c-7 -7 -36 -15 -64 -18 -28 -3 -53 -10 -55 -15 -4 -14 56
-37 71 -27 46 29 203 44 244 23 36 -19 125 -51 142 -51 10 0 23 -7 31 -16 8
-10 22 -14 38 -11 13 3 35 0 49 -6 17 -8 28 -8 43 1 10 7 30 12 45 12 14 0 38
8 52 18 15 10 35 22 45 25 24 9 18 41 -9 45 -11 2 -27 -4 -34 -13 -7 -8 -23
-15 -37 -15 -13 0 -26 -7 -29 -15 -9 -21 -51 -19 -81 5 -19 14 -41 20 -80 20
-40 0 -61 6 -84 23 -27 19 -45 22 -152 25 -90 3 -125 0 -135 -10z"></path>
<path d="M1505 3680 c-4 -6 -24 -10 -45 -9 -21 2 -44 -2 -52 -8 -7 -6 -29 -13
-49 -17 -40 -7 -95 -32 -104 -47 -9 -14 -36 -11 -55 6 -19 17 -141 37 -154 24
-10 -9 10 -39 27 -39 5 0 16 -8 23 -17 19 -28 178 -35 219 -11 17 10 44 25 60
34 17 8 41 22 55 30 37 21 165 9 193 -19 16 -16 28 -18 70 -14 27 4 57 13 66
21 9 8 25 16 36 18 12 2 21 13 23 26 3 17 -1 22 -20 22 -13 0 -29 -9 -37 -21
-12 -20 -19 -21 -73 -15 -34 3 -67 11 -75 18 -8 6 -22 13 -31 14 -10 2 -29 6
-43 9 -16 4 -30 2 -34 -5z"></path>
<path d="M5163 3674 c-6 -16 13 -44 30 -44 6 0 18 -7 27 -15 9 -8 38 -18 64
-21 38 -6 52 -3 74 13 38 28 167 40 202 18 14 -8 37 -20 53 -27 15 -7 27 -16
27 -20 0 -17 58 -30 137 -30 77 0 83 1 122 33 38 30 49 54 25 54 -57 -1 -136
-19 -141 -31 -8 -21 -40 -17 -76 10 -18 13 -53 27 -79 31 -26 4 -52 13 -58 20
-5 7 -21 10 -35 7 -14 -2 -39 1 -56 8 -24 10 -35 10 -54 0 -14 -7 -28 -10 -32
-7 -3 4 -14 0 -24 -9 -10 -9 -44 -18 -77 -21 -53 -5 -61 -3 -71 14 -13 26 -50
37 -58 17z"></path>
<path d="M1396 3515 c-4 -12 -32 -15 -165 -15 -110 0 -162 -4 -167 -12 -16
-26 25 -34 182 -32 137 2 159 4 162 18 4 21 90 23 98 2 3 -9 30 -16 75 -20
111 -11 85 -29 -30 -21 -94 7 -100 6 -110 -14 -14 -26 -72 -29 -91 -5 -16 18
-65 15 -65 -5 0 -8 25 -21 65 -33 36 -11 71 -22 79 -24 10 -3 11 -7 2 -18 -9
-11 -7 -20 12 -40 13 -14 28 -26 32 -26 5 0 17 -7 26 -16 15 -14 23 -15 47 -5
38 16 141 17 172 2 48 -23 74 -40 90 -59 11 -15 33 -21 91 -26 67 -6 79 -4
101 14 15 11 30 20 36 20 14 0 72 31 72 38 0 4 13 13 29 20 40 18 157 6 193
-19 29 -21 102 -26 113 -8 4 5 18 14 31 19 15 6 22 15 18 25 -8 19 -38 19 -54
0 -7 -8 -26 -15 -42 -15 -16 0 -31 6 -34 15 -4 8 -18 15 -33 15 -15 0 -31 3
-35 7 -11 11 -80 33 -106 33 -14 0 -40 -9 -58 -20 -18 -11 -39 -20 -46 -20 -7
0 -19 -7 -26 -15 -7 -9 -20 -15 -29 -14 -9 2 -35 -3 -59 -11 -35 -11 -49 -11
-85 1 -23 7 -49 13 -57 14 -8 0 -29 10 -45 21 -19 14 -53 24 -90 28 -82 8 -95
8 -133 0 -21 -4 -44 -1 -67 10 -38 19 -45 34 -17 42 9 3 25 10 34 15 32 17 84
11 99 -11 11 -17 29 -22 89 -27 41 -3 82 -11 90 -18 8 -7 32 -15 54 -18 21 -3
47 -14 57 -23 18 -16 20 -16 38 0 11 10 43 20 77 23 33 3 66 11 74 17 31 24
67 37 124 44 33 4 61 13 64 20 2 6 -3 12 -11 12 -8 0 -20 7 -27 15 -7 8 -29
15 -50 15 -21 0 -43 -7 -50 -15 -7 -8 -23 -15 -36 -15 -13 0 -27 -8 -33 -17
-8 -14 -12 -15 -25 -4 -14 12 -19 11 -34 -1 -18 -17 -192 -35 -192 -21 0 14
53 33 91 33 21 0 41 5 44 10 3 6 13 10 22 10 9 0 24 7 33 15 9 8 43 20 76 26
76 14 87 24 43 44 -19 8 -41 20 -49 26 -12 9 -24 5 -54 -15 -21 -14 -42 -23
-47 -20 -5 3 -12 -2 -15 -10 -3 -9 -14 -16 -23 -16 -9 0 -22 -5 -28 -11 -7 -7
-32 -9 -69 -5 -33 4 -78 8 -101 9 -27 2 -47 9 -56 21 -7 9 -31 20 -55 23 -23
3 -47 12 -53 19 -17 21 -175 20 -183 -1z m387 -102 c44 -8 31 -37 -18 -41 -83
-7 -125 14 -93 46 11 11 29 11 111 -5z"></path>
<path d="M4895 3520 c-4 -6 -22 -17 -41 -25 -20 -8 -33 -18 -30 -23 3 -5 36
-14 75 -21 41 -8 72 -18 75 -27 3 -8 14 -14 25 -14 11 0 23 -4 26 -10 3 -5 24
-10 46 -10 37 0 99 -23 99 -36 0 -12 -185 9 -201 22 -13 12 -18 11 -32 -4 -17
-16 -18 -16 -23 6 -4 14 -14 22 -29 22 -12 0 -28 7 -35 15 -20 24 -90 19 -125
-10 -33 -27 -30 -30 53 -40 51 -6 78 -16 112 -41 8 -6 41 -14 74 -17 34 -3 66
-13 77 -23 18 -16 20 -16 38 0 11 10 38 20 60 23 22 3 46 12 52 19 7 9 32 14
65 14 29 0 56 5 59 10 3 6 17 10 29 10 13 0 29 7 36 15 16 19 58 19 104 0 44
-18 45 -30 6 -50 -35 -18 -81 -20 -98 -3 -9 9 -18 9 -37 0 -14 -7 -48 -12 -74
-12 -35 0 -58 -7 -85 -25 -21 -14 -42 -23 -47 -19 -5 3 -17 0 -26 -7 -20 -17
-116 -17 -137 0 -9 7 -22 11 -30 8 -8 -3 -20 1 -26 9 -7 8 -18 14 -24 14 -7 0
-31 9 -54 20 -22 11 -51 20 -64 20 -25 0 -93 -22 -104 -33 -4 -4 -17 -7 -29
-7 -13 0 -28 -7 -35 -15 -18 -22 -67 -19 -80 5 -14 26 -36 26 -50 0 -14 -26
-4 -43 21 -35 12 4 21 1 25 -9 9 -23 78 -21 112 3 17 12 52 21 98 25 75 6 90
2 151 -41 17 -13 40 -23 50 -23 10 0 27 -10 37 -21 15 -18 25 -21 63 -15 25 3
63 6 84 6 27 0 39 5 43 18 3 9 23 26 43 36 21 10 47 23 58 29 26 14 129 11
154 -4 18 -12 25 -11 68 15 46 26 63 48 57 72 -5 19 -2 24 12 25 38 1 129 37
129 50 0 20 -49 23 -65 5 -19 -23 -66 -20 -84 5 -14 21 -20 21 -115 15 -64 -5
-101 -4 -101 2 0 10 62 22 111 22 15 0 29 7 33 15 8 21 92 21 104 -1 8 -14 33
-16 161 -18 111 -1 155 2 162 11 23 27 -4 33 -157 33 -128 0 -156 3 -160 15
-8 21 -166 22 -183 1 -6 -7 -30 -16 -53 -19 -23 -3 -48 -13 -55 -23 -7 -10
-29 -18 -55 -20 -24 -2 -69 -6 -102 -10 -37 -4 -62 -2 -69 5 -6 6 -19 11 -29
11 -10 0 -18 4 -18 8 0 5 -16 15 -35 22 -20 8 -41 20 -47 27 -13 16 -34 17
-43 3z m425 -105 c20 -24 -2 -38 -68 -43 -43 -3 -61 0 -70 11 -17 20 2 34 53
40 22 2 47 4 56 5 9 1 22 -5 29 -13z"></path>
<path d="M1094 3419 c-3 -6 2 -23 13 -37 25 -33 71 -40 119 -17 37 17 37 35 0
35 -13 0 -29 7 -36 15 -14 17 -85 20 -96 4z"></path>
<path d="M5800 3415 c-7 -8 -25 -15 -41 -15 -15 0 -30 -4 -34 -9 -8 -15 54
-41 96 -41 33 0 41 5 54 30 9 17 13 35 10 40 -10 16 -71 12 -85 -5z"></path>
<path d="M5652 3349 c-28 -11 -26 -42 3 -48 11 -2 36 -16 55 -31 45 -34 78
-43 97 -24 8 8 23 14 32 14 22 0 45 25 36 40 -8 13 -42 13 -50 0 -3 -5 -22
-10 -42 -10 -26 0 -36 5 -40 20 -3 11 -12 20 -21 20 -8 0 -23 6 -31 14 -11 10
-23 11 -39 5z"></path>
<path d="M1262 3321 c-32 -33 -87 -42 -109 -20 -7 7 -19 9 -28 5 -28 -11 -12
-37 33 -52 38 -13 46 -13 80 1 20 9 44 21 52 26 8 5 25 14 38 19 31 13 25 44
-9 48 -19 2 -35 -6 -57 -27z"></path>
<path d="M1357 3265 c-10 -14 -24 -25 -32 -25 -8 0 -19 -9 -25 -19 -7 -14 -23
-21 -52 -23 -48 -3 -61 -23 -25 -37 36 -14 98 3 120 33 10 15 25 26 33 26 9 0
14 11 14 35 0 41 -8 44 -33 10z"></path>
<path d="M5590 3260 c0 -23 6 -33 25 -42 13 -6 27 -19 30 -29 10 -29 103 -45
126 -22 19 19 0 33 -41 33 -29 0 -42 5 -50 20 -6 11 -17 20 -25 20 -7 0 -22
11 -33 25 -26 33 -32 32 -32 -5z"></path>
<path d="M1560 3150 c-8 -5 -25 -10 -36 -10 -12 0 -27 -6 -33 -14 -17 -20
-144 -31 -182 -16 -41 17 -47 6 -13 -25 22 -19 37 -24 61 -21 18 3 35 0 38 -5
4 -5 23 -9 43 -9 20 0 44 -5 52 -10 10 -6 24 -1 48 17 30 22 39 24 75 17 44
-9 53 -29 14 -29 -12 0 -29 -4 -37 -10 -53 -35 -131 -48 -145 -25 -7 12 -65
13 -65 2 0 -5 8 -15 18 -24 32 -26 66 -34 112 -26 141 26 265 18 295 -17 6 -7
39 -16 75 -20 44 -5 74 -15 96 -31 39 -30 45 -30 75 2 18 19 30 24 51 20 15
-3 30 -1 33 4 3 6 17 10 29 10 13 0 29 6 35 14 15 18 151 40 198 33 20 -4 50
-16 65 -27 32 -24 61 -26 78 -5 7 8 35 18 63 21 59 8 115 50 104 79 -7 16 -9
16 -30 1 -12 -9 -29 -19 -37 -22 -8 -3 -33 -14 -56 -24 -26 -12 -46 -15 -55
-9 -8 5 -37 9 -66 9 -28 0 -55 5 -58 10 -3 6 -30 10 -60 10 -30 0 -57 -4 -60
-10 -3 -5 -21 -10 -38 -10 -31 0 -89 -17 -114 -33 -17 -10 -165 -13 -181 -3
-22 13 -2 27 32 21 23 -5 36 -2 45 9 8 9 21 16 31 16 19 0 48 14 92 44 15 10
32 15 38 11 6 -4 18 -1 26 6 11 9 21 9 37 2 13 -6 36 -9 51 -6 15 3 37 1 49
-5 12 -6 38 -13 57 -16 19 -2 48 -8 63 -12 29 -7 99 10 126 30 18 14 51 33 79
45 26 12 29 39 5 48 -11 4 -23 -3 -37 -20 -12 -15 -36 -29 -53 -33 -18 -4 -38
-13 -44 -20 -16 -19 -135 -19 -142 0 -3 8 -27 17 -56 21 -28 4 -52 13 -55 21
-7 18 -60 18 -75 0 -6 -7 -30 -16 -52 -19 -22 -3 -48 -12 -57 -20 -48 -41
-265 -45 -308 -5 -14 12 -42 21 -80 25 -39 4 -69 14 -90 30 -33 25 -51 28 -74
13z m225 -94 c27 -14 66 -27 86 -31 45 -7 60 -23 48 -52 -7 -19 -13 -22 -41
-16 -18 3 -55 16 -83 28 -27 13 -65 26 -82 29 -40 9 -47 19 -33 46 14 26 44
25 105 -4z"></path>
<path d="M4293 3144 c-6 -15 40 -63 61 -64 5 0 17 -6 25 -13 27 -22 97 -40
128 -33 15 4 46 10 68 13 22 3 45 9 52 15 6 5 28 9 50 9 21 0 52 0 68 0 63 0
71 -3 96 -27 15 -14 31 -26 36 -25 19 1 59 -13 75 -26 9 -8 29 -13 45 -11 36
4 41 -15 5 -24 -49 -14 -142 2 -204 33 -10 5 -36 9 -57 9 -22 0 -43 5 -46 10
-3 6 -30 10 -60 10 -30 0 -57 -4 -60 -10 -3 -5 -26 -10 -51 -10 -25 0 -54 -5
-65 -10 -14 -8 -28 -6 -58 10 -22 11 -45 20 -52 20 -6 0 -22 9 -36 20 -23 18
-43 19 -43 2 0 -4 13 -21 28 -38 22 -24 40 -32 80 -38 32 -4 55 -13 59 -21 6
-17 83 -21 83 -5 0 16 56 40 93 40 50 0 150 -21 167 -35 18 -15 64 -26 101
-26 15 1 35 -9 49 -24 29 -31 35 -31 77 1 24 18 41 24 58 20 13 -3 27 -2 30 4
3 5 21 10 40 10 19 0 38 6 42 13 17 27 88 40 175 32 147 -13 205 -11 227 9 11
10 18 23 15 27 -7 12 -51 11 -59 -1 -15 -24 -131 -1 -150 29 -2 5 -16 6 -30 3
-18 -3 -25 0 -25 11 0 10 14 18 40 22 32 5 45 3 66 -14 22 -18 35 -20 83 -15
31 4 60 10 65 14 4 5 22 6 40 4 23 -3 38 2 60 21 32 30 28 45 -8 25 -31 -16
-169 -5 -187 16 -6 8 -20 14 -31 14 -11 0 -29 5 -40 11 -21 11 -51 2 -88 -27
-8 -6 -41 -14 -74 -17 -38 -4 -66 -13 -80 -25 -28 -27 -154 -39 -216 -21 -25
7 -51 11 -58 10 -7 -1 -24 7 -39 18 -14 12 -40 21 -58 21 -18 0 -38 7 -45 15
-16 19 -54 19 -69 1 -6 -8 -31 -17 -56 -20 -24 -4 -49 -14 -55 -21 -17 -20
-133 -21 -149 -1 -7 8 -27 17 -45 20 -20 4 -41 17 -50 31 -19 29 -34 32 -43 9z
m1015 -95 c3 -24 -1 -27 -34 -34 -21 -3 -58 -17 -83 -29 -26 -13 -63 -26 -84
-29 -33 -5 -39 -3 -46 16 -12 31 3 45 57 53 26 4 58 14 72 24 35 24 51 29 85
27 24 -2 31 -7 33 -28z"></path>
<path d="M2748 3074 c-14 -13 6 -41 36 -52 38 -14 126 -16 126 -3 0 16 -25 28
-72 35 -26 4 -50 11 -53 17 -7 10 -28 12 -37 3z"></path>
<path d="M4195 3071 c-6 -6 -32 -14 -60 -18 -35 -6 -51 -14 -53 -26 -7 -37
141 -13 151 24 7 28 -18 40 -38 20z"></path>
<path d="M3450 3024 c-19 -13 -52 -30 -72 -36 -21 -6 -48 -22 -60 -35 l-23
-25 40 7 c22 4 45 14 52 22 45 57 140 57 208 2 11 -9 36 -20 55 -24 l35 -7
-23 25 c-13 14 -35 28 -48 31 -13 4 -46 20 -74 36 -28 17 -52 30 -53 30 -1 -1
-18 -12 -37 -26z"></path>
<path d="M2788 2974 c-12 -12 6 -46 31 -59 15 -7 33 -21 40 -29 8 -9 24 -16
36 -16 13 0 25 -6 28 -13 7 -20 65 -9 78 14 6 12 21 19 38 19 16 0 34 7 41 15
7 9 29 15 55 15 26 0 48 -6 55 -15 7 -8 18 -15 25 -15 18 0 64 -25 78 -43 7
-8 30 -18 52 -22 l40 -7 -23 25 c-13 14 -34 28 -46 31 -13 3 -43 17 -67 31
-68 40 -72 42 -109 54 -22 7 -38 7 -44 1 -6 -6 -17 -10 -25 -10 -8 0 -23 -8
-34 -17 -14 -14 -36 -18 -88 -18 -67 0 -71 1 -95 33 -23 29 -52 41 -66 26z"></path>
<path d="M4132 2950 c-12 -21 -27 -31 -54 -35 -47 -8 -124 3 -139 21 -6 8 -19
14 -28 14 -9 0 -22 5 -28 11 -8 8 -17 8 -31 0 -11 -6 -28 -11 -36 -11 -9 0
-37 -15 -63 -34 -27 -18 -62 -37 -79 -40 -17 -4 -42 -18 -55 -32 l-24 -26 40
8 c22 4 56 20 75 35 19 16 42 29 51 29 9 0 22 7 29 15 7 9 29 15 55 15 26 0
48 -6 55 -15 7 -8 25 -15 41 -15 17 0 34 -8 43 -21 17 -25 72 -34 80 -13 3 8
15 14 27 14 33 0 99 57 99 86 0 35 -36 32 -58 -6z"></path>
<path d="M2644 2935 c-4 -8 -12 -15 -19 -15 -7 0 -18 -7 -25 -15 -30 -36 -120
-59 -135 -35 -3 6 -14 10 -24 10 -10 0 -24 7 -31 15 -9 11 -34 15 -95 15 -69
0 -85 -3 -100 -20 -10 -11 -25 -20 -33 -20 -9 0 -24 -8 -35 -17 -28 -26 -207
-25 -235 0 -10 9 -34 17 -54 17 -20 0 -46 9 -61 20 -23 18 -45 21 -162 26 -81
2 -135 1 -135 -5 0 -10 56 -41 75 -41 7 0 20 -9 30 -20 10 -11 26 -20 37 -20
10 0 27 9 38 20 23 23 50 26 68 8 13 -13 14 -14 97 -29 33 -6 67 -17 75 -24 8
-8 40 -17 70 -21 30 -3 63 -13 72 -22 19 -16 50 -10 46 10 -2 6 6 14 17 16 11
2 27 10 35 17 8 8 29 17 45 21 17 4 35 11 42 16 14 11 133 5 217 -11 50 -10
62 -9 82 4 14 9 30 15 37 13 15 -3 67 31 67 45 0 5 7 15 17 22 9 7 13 17 9 23
-10 17 -26 15 -32 -3z"></path>
<path d="M4304 2939 c-9 -14 65 -89 88 -89 10 0 29 -7 42 -15 20 -13 33 -14
82 -4 146 28 250 19 305 -28 8 -7 23 -13 32 -13 9 0 21 -9 27 -20 12 -23 33
-26 49 -6 6 8 37 17 69 21 31 4 64 13 72 20 8 7 40 18 70 24 30 6 62 13 69 15
8 1 17 8 19 14 6 19 50 14 72 -8 11 -11 32 -20 46 -20 17 0 28 6 31 20 3 11
13 20 23 20 23 0 80 29 80 41 0 6 -53 8 -135 5 -117 -4 -139 -8 -162 -25 -15
-12 -40 -21 -61 -21 -20 0 -44 -8 -55 -17 -28 -26 -206 -26 -234 0 -11 9 -26
17 -35 17 -8 0 -23 9 -33 20 -15 17 -31 20 -95 20 -57 0 -81 -4 -90 -15 -7 -8
-23 -15 -36 -15 -12 0 -26 -4 -29 -10 -13 -22 -102 -2 -124 27 -7 10 -68 53
-75 53 -3 0 -8 -5 -12 -11z"></path>
<path d="M2337 2778 c-7 -4 -47 -8 -89 -8 -44 0 -78 -4 -78 -10 0 -18 51 -23
162 -17 113 7 198 1 198 -14 0 -5 -15 -9 -34 -9 -18 0 -39 -7 -46 -15 -7 -8
-21 -15 -31 -15 -10 0 -21 -4 -24 -10 -8 -13 -51 -13 -77 1 -29 15 -43 -3 -20
-24 26 -24 118 -30 149 -10 33 22 176 1 213 -31 8 -7 40 -16 69 -19 32 -4 58
-13 63 -21 4 -8 30 -17 57 -21 47 -6 78 1 143 36 10 5 24 9 32 9 7 0 19 7 26
15 7 8 22 15 34 15 12 0 31 7 42 15 23 18 105 20 122 3 20 -20 396 -21 495 -2
71 15 81 15 111 0 19 -9 41 -16 49 -16 8 0 20 -7 27 -15 7 -8 19 -15 26 -15 8
0 22 -4 32 -9 59 -30 81 -36 128 -35 29 0 60 6 69 14 18 15 30 19 85 27 19 3
42 11 50 19 9 7 35 16 58 20 23 4 45 11 48 15 9 15 100 10 113 -5 16 -20 113
-14 147 9 37 24 18 38 -34 27 -43 -10 -100 2 -124 26 -7 7 -25 12 -40 12 -15
0 -28 5 -28 10 0 12 24 14 204 14 95 1 140 5 143 12 3 8 -45 14 -161 19 -175
8 -254 2 -262 -20 -3 -7 -15 -13 -27 -13 -12 -1 -44 -5 -72 -11 -27 -5 -81
-10 -118 -10 -57 -1 -76 4 -115 26 -44 26 -55 27 -168 28 -90 0 -125 -4 -138
-14 -23 -19 -149 -15 -190 6 -39 20 -93 20 -131 1 -44 -23 -164 -26 -195 -6
-18 13 -50 17 -120 18 -98 2 -123 -3 -152 -28 -10 -8 -18 -12 -18 -8 0 3 -13
0 -30 -9 -33 -17 -138 -19 -215 -4 -27 6 -59 11 -70 11 -11 1 -25 9 -31 17 -9
11 -42 16 -129 20 -64 3 -122 3 -128 -1z m1179 -41 c6 -18 -13 -67 -26 -67
-13 0 -32 49 -26 67 3 7 15 13 26 13 11 0 23 -6 26 -13z m-286 -18 c32 -16 53
-19 84 -14 23 3 59 7 81 8 38 2 40 1 40 -28 0 -33 -25 -45 -51 -24 -9 8 -39
11 -79 10 -36 -1 -66 2 -70 8 -8 14 -92 14 -100 0 -4 -6 -24 -9 -45 -8 -21 2
-45 -2 -53 -9 -8 -7 -39 -15 -68 -18 -30 -3 -63 -10 -74 -15 -25 -11 -181 2
-178 16 2 6 42 11 90 13 48 2 92 7 97 12 6 6 21 10 34 10 14 0 36 13 52 30 27
29 32 30 112 30 65 0 94 -5 128 -21z m762 -9 c15 -21 30 -30 49 -30 15 0 31
-4 34 -10 3 -6 48 -10 101 -10 77 0 94 -3 94 -15 0 -12 -15 -15 -62 -17 -109
-4 -241 13 -265 34 -9 7 -30 11 -48 9 -18 -1 -36 2 -40 8 -8 14 -92 14 -100 0
-4 -6 -35 -9 -76 -8 -43 1 -74 -2 -83 -10 -26 -21 -51 -9 -51 24 0 29 2 30 40
28 22 -1 61 -5 86 -9 35 -4 53 -1 80 14 27 16 53 21 126 21 91 1 93 1 115 -29z
m-1334 -3 c53 -12 64 -25 37 -47 -12 -10 -28 -9 -81 6 -66 18 -89 38 -63 55 8
5 23 6 34 3 11 -3 44 -11 73 -17z m1772 8 c18 -22 7 -30 -65 -50 -64 -17 -66
-17 -80 1 -16 23 -11 34 18 35 12 0 38 6 57 13 47 18 56 18 70 1z"></path>
<path d="M2180 2695 c-13 -8 -28 -23 -32 -34 -6 -16 -16 -21 -47 -21 -22 0
-43 -4 -46 -10 -8 -12 -132 -13 -139 -1 -7 11 -105 26 -113 17 -12 -12 31 -46
58 -46 15 0 31 -4 34 -10 3 -5 24 -10 45 -10 21 0 42 -4 45 -10 3 -5 19 -10
35 -10 16 0 32 5 35 10 3 6 14 10 24 10 10 0 28 11 41 25 13 14 34 25 47 25
14 0 26 7 29 18 3 9 10 25 15 34 17 32 10 35 -31 13z"></path>
<path d="M4782 2667 c2 -26 8 -33 28 -35 14 -2 34 -12 45 -21 49 -44 130 -65
141 -37 4 10 17 12 48 9 26 -3 46 -1 50 6 4 6 17 11 30 11 24 0 64 35 53 46
-4 4 -30 1 -59 -6 -77 -18 -178 -24 -191 -11 -6 6 -26 11 -44 11 -23 0 -37 7
-48 24 -9 13 -25 26 -36 29 -17 5 -20 1 -17 -26z"></path>
<path d="M2211 2581 c-24 -20 -51 -31 -84 -34 -27 -4 -56 -12 -63 -18 -11 -9
-18 -9 -26 -1 -16 16 -51 15 -46 0 14 -40 136 -52 172 -18 12 11 38 34 59 51
34 29 47 49 30 49 -5 0 -24 -13 -42 -29z"></path>
<path d="M4720 2603 c0 -12 53 -63 65 -63 6 0 22 -11 35 -25 18 -20 33 -25 69
-25 49 0 92 17 99 38 5 15 -30 16 -46 0 -8 -8 -15 -8 -26 1 -7 6 -37 14 -64
18 -38 4 -58 13 -78 34 -26 27 -54 38 -54 22z"></path>
<path d="M2398 2582 c-21 -4 -23 -18 -6 -29 14 -8 38 -10 197 -19 99 -5 105
-7 155 -42 50 -36 53 -37 142 -37 71 0 96 4 110 16 11 9 30 20 44 24 14 4 38
18 53 31 30 25 100 34 112 14 3 -5 22 -10 40 -10 24 0 38 -6 45 -20 6 -11 20
-20 30 -20 11 0 28 -4 38 -9 9 -5 26 -12 36 -16 13 -4 16 -9 9 -16 -6 -6 -84
-11 -191 -12 -172 -2 -182 -3 -204 -24 -14 -13 -29 -23 -35 -23 -6 0 -16 -7
-23 -15 -17 -20 -142 -21 -159 -1 -6 7 -37 16 -68 20 -32 4 -66 14 -76 24 -17
15 -41 17 -184 15 -91 -1 -167 -4 -171 -7 -3 -4 3 -13 14 -21 22 -16 120 -20
129 -5 11 18 85 11 112 -10 14 -11 41 -20 59 -20 19 0 34 -4 34 -10 0 -6 -29
-10 -67 -10 -52 0 -74 -5 -93 -20 -30 -23 -28 -24 80 -25 67 0 85 -3 85 -15 0
-8 17 -18 42 -25 23 -5 45 -13 49 -17 4 -5 18 -8 30 -8 13 0 26 -4 29 -10 3
-5 26 -10 51 -10 24 0 53 -5 64 -12 16 -10 26 -8 60 10 46 24 70 28 86 12 7
-7 21 -2 44 15 19 14 46 25 61 25 14 0 32 7 39 15 16 20 123 21 139 1 6 -7 34
-16 61 -20 27 -4 52 -11 55 -16 9 -14 47 -12 88 5 20 8 47 15 60 15 14 0 30 7
37 15 8 10 31 15 70 15 39 0 62 -5 70 -15 7 -8 25 -15 39 -15 15 0 42 -11 60
-24 28 -21 37 -23 58 -13 21 9 32 7 69 -12 37 -20 48 -22 70 -13 14 7 39 12
57 12 30 0 89 17 112 32 6 3 27 9 48 13 22 4 42 16 48 27 10 19 17 19 100 13
51 -4 89 -3 89 2 0 22 -60 43 -125 43 -41 0 -64 4 -60 10 3 6 18 10 33 10 15
0 41 9 57 20 32 21 99 27 110 10 9 -15 108 -12 131 4 10 8 16 17 12 21 -3 4
-80 7 -171 8 -143 2 -167 0 -184 -15 -10 -10 -44 -20 -76 -24 -31 -4 -62 -13
-68 -20 -16 -20 -132 -19 -149 1 -7 8 -18 15 -25 15 -7 0 -25 10 -41 23 -27
21 -39 22 -208 24 -105 1 -183 6 -189 12 -7 7 -4 12 9 16 10 4 27 11 36 16 10
5 27 9 38 9 10 0 24 9 29 19 7 12 26 21 51 25 22 3 58 9 81 12 34 5 45 2 67
-19 15 -13 41 -28 57 -31 17 -4 38 -15 49 -24 13 -12 41 -18 97 -21 77 -3 80
-2 136 35 55 37 64 39 158 46 115 7 211 21 221 31 18 17 -19 22 -170 21 -152
0 -165 -2 -191 -22 -15 -12 -35 -22 -44 -22 -10 0 -21 -4 -27 -8 -5 -5 -27
-14 -50 -21 -36 -12 -44 -11 -78 8 -21 12 -59 24 -84 28 -26 3 -55 13 -66 22
-13 12 -38 16 -95 16 -65 0 -81 -4 -108 -24 -27 -20 -40 -23 -89 -19 -45 4
-61 10 -72 26 -18 28 -49 28 -79 0 -16 -15 -40 -23 -79 -26 -47 -4 -60 -1 -87
19 -27 20 -43 24 -108 24 -57 0 -82 -4 -95 -16 -11 -9 -40 -19 -66 -22 -25 -4
-63 -16 -84 -28 -34 -19 -42 -20 -78 -8 -23 7 -45 16 -51 21 -5 4 -16 8 -26 8
-9 0 -28 10 -43 21 -25 20 -41 22 -174 23 -81 1 -155 0 -164 -2z m1121 -46 c7
-8 23 -17 36 -20 29 -7 31 -18 10 -36 -25 -21 -18 -51 15 -63 35 -13 38 -23
10 -32 -13 -4 -30 1 -46 14 -33 26 -74 27 -106 2 -15 -13 -33 -18 -46 -14 -30
7 -27 17 8 30 33 13 40 42 15 63 -18 15 -12 23 36 50 41 23 53 24 68 6z m-234
-156 c3 -5 26 -10 51 -10 52 0 57 -12 13 -30 -24 -10 -36 -11 -50 -2 -29 19
-143 15 -181 -6 -18 -9 -51 -24 -73 -31 -22 -8 -43 -18 -46 -23 -10 -15 -148
-16 -161 -1 -6 7 -23 13 -39 13 -16 0 -29 5 -29 10 0 6 33 10 78 10 48 0 83 5
90 12 7 7 40 18 74 25 34 7 69 19 77 28 18 17 186 22 196 5z m240 -10 c10 -11
26 -20 37 -20 26 0 22 -15 -7 -28 -38 -17 -101 -15 -138 5 l-32 18 26 3 c15 2
35 12 45 23 22 24 46 24 69 -1z m385 -1 c24 -12 61 -24 82 -27 21 -2 43 -11
49 -18 8 -10 36 -14 90 -14 46 0 79 -4 79 -10 0 -5 -13 -10 -28 -10 -15 0 -33
-5 -40 -12 -13 -13 -152 -18 -152 -6 0 8 -59 38 -76 38 -8 0 -28 9 -46 20 -38
23 -155 28 -187 8 -14 -9 -26 -8 -50 1 -39 17 -31 31 19 31 21 0 42 5 45 10 3
6 43 10 89 10 63 0 92 -5 126 -21z m-1156 -20 c5 -4 2 -19 -8 -34 -17 -26 -43
-27 -73 -3 -14 11 -17 40 -6 51 8 9 74 -2 87 -14z m1561 -9 c0 -16 -9 -29 -28
-40 -27 -14 -29 -14 -48 9 -25 30 -20 44 17 52 46 11 59 6 59 -21z"></path>
<path d="M1598 2303 c-7 -15 -27 -45 -45 -66 -18 -20 -33 -43 -33 -51 0 -7 -7
-19 -15 -26 -8 -7 -15 -20 -15 -30 0 -9 -9 -29 -20 -43 -16 -20 -20 -40 -20
-96 0 -63 3 -75 32 -115 21 -31 41 -47 62 -52 17 -3 37 -11 45 -17 17 -15 50
-33 81 -47 14 -7 38 -18 53 -26 16 -8 34 -14 42 -14 7 0 18 -6 24 -14 6 -7 32
-16 58 -20 25 -3 52 -11 59 -17 21 -17 115 -39 170 -39 27 0 55 -5 60 -10 6
-6 47 -13 93 -17 45 -3 84 -10 87 -15 3 -4 18 -8 33 -8 28 0 71 35 71 58 0 15
-81 52 -114 52 -26 0 -102 35 -112 51 -3 6 -13 7 -22 5 -11 -4 -44 17 -94 59
-43 36 -82 65 -87 65 -6 0 -16 12 -23 27 -7 15 -26 34 -41 41 -15 7 -27 18
-27 24 0 6 -10 21 -22 33 -41 40 -72 79 -103 127 -16 25 -45 67 -62 92 -18 26
-36 61 -41 79 -6 25 -14 33 -35 35 -21 3 -29 -2 -39 -25z m111 -162 c136 -205
320 -379 474 -449 42 -19 77 -39 77 -43 0 -12 -17 -11 -80 6 -30 8 -76 15
-101 15 -67 0 -351 101 -445 158 -27 17 -59 33 -71 36 -40 13 -63 58 -63 126
0 51 6 74 36 133 32 66 78 127 94 127 4 0 39 -49 79 -109z"></path>
<path d="M5319 2303 c-6 -16 -27 -52 -47 -82 -50 -72 -69 -101 -86 -132 -9
-15 -22 -29 -31 -32 -8 -4 -15 -13 -15 -22 0 -17 -207 -225 -224 -225 -6 -1
-27 -14 -46 -30 -19 -17 -44 -30 -57 -30 -12 0 -25 -5 -28 -10 -11 -17 -83
-50 -110 -50 -35 0 -115 -37 -115 -54 0 -35 87 -75 104 -48 3 5 42 12 86 15
44 4 89 11 99 17 11 5 39 10 63 10 48 0 142 23 162 39 7 6 34 14 59 17 26 4
52 13 58 20 6 8 19 14 28 14 9 0 21 4 27 9 5 5 27 14 49 21 22 7 56 25 75 40
19 15 49 30 66 34 21 5 41 21 62 52 29 40 32 52 32 114 0 52 -5 78 -20 102
-11 18 -20 38 -20 45 0 14 -56 99 -71 108 -5 4 -18 24 -29 46 -25 47 -55 53
-71 12z m131 -185 c49 -97 53 -154 15 -210 -14 -20 -35 -40 -47 -44 -13 -3
-48 -22 -78 -40 -30 -18 -75 -41 -100 -50 -210 -76 -299 -104 -334 -104 -23 0
-68 -7 -101 -15 -70 -17 -85 -18 -85 -7 0 4 35 23 77 42 87 40 187 113 285
209 70 69 80 82 174 221 32 47 67 95 78 108 l20 22 28 -27 c15 -14 46 -62 68
-105z"></path>
<path d="M3132 2220 c-26 -24 -41 -30 -76 -30 -26 0 -48 -6 -56 -15 -10 -12
-27 -13 -87 -8 -60 5 -75 3 -71 -7 2 -8 25 -14 60 -15 31 -2 72 -9 92 -16 30
-11 38 -11 53 3 10 9 37 19 61 23 26 4 46 14 52 26 14 24 81 26 101 3 9 -11
23 -14 45 -11 20 4 37 1 43 -7 13 -15 4 -26 -19 -26 -10 0 -23 -7 -30 -15 -7
-8 -27 -17 -46 -21 -18 -3 -38 -12 -45 -20 -6 -8 -19 -14 -29 -14 -9 0 -25 -9
-35 -20 -15 -16 -31 -20 -85 -20 -45 0 -71 5 -79 14 -6 7 -37 16 -68 20 -32 4
-66 14 -76 24 -23 21 -205 30 -250 13 -34 -13 -31 -38 4 -32 13 2 53 4 87 4
50 1 66 -3 73 -16 7 -11 22 -17 44 -17 19 0 35 -4 35 -10 0 -6 -30 -10 -69
-10 -39 0 -73 -4 -76 -10 -3 -5 -15 -10 -26 -10 -12 0 -19 -5 -16 -12 3 -10
29 -12 95 -10 83 3 92 1 102 -17 6 -12 19 -21 28 -21 10 0 27 -7 38 -15 10 -8
31 -15 46 -15 15 0 30 -4 33 -10 3 -5 26 -10 51 -10 24 0 53 -5 64 -12 19 -12
28 -10 93 24 10 5 31 7 46 3 19 -4 35 0 53 15 14 11 39 20 55 20 16 0 34 5 41
12 6 6 15 9 18 5 11 -11 -16 -35 -46 -42 -15 -3 -36 -15 -46 -26 -11 -12 -30
-19 -55 -19 -21 0 -41 -5 -44 -11 -4 -5 -18 -14 -32 -20 -13 -5 -23 -15 -21
-22 6 -15 65 -22 81 -9 7 5 31 13 55 17 31 5 46 13 51 28 6 17 18 22 52 23 24
2 63 6 85 9 26 4 44 3 48 -4 4 -6 27 -11 50 -11 34 0 45 -4 48 -18 4 -13 22
-23 59 -31 100 -23 114 -24 128 -7 11 13 9 17 -12 25 -14 5 -28 15 -32 20 -3
6 -26 11 -50 11 -34 0 -47 5 -55 20 -6 10 -26 22 -45 26 -35 6 -63 29 -51 41
3 4 12 1 18 -5 7 -7 25 -12 42 -12 16 0 38 -8 48 -17 10 -9 35 -17 56 -18 37
-1 56 -7 100 -28 17 -8 28 -8 42 1 11 7 40 12 64 12 25 0 48 5 51 10 3 6 18
10 33 10 15 0 36 7 46 15 11 8 31 15 44 15 16 0 26 7 29 21 5 19 12 20 97 17
73 -2 91 0 91 11 0 17 -20 23 -112 28 -71 4 -104 23 -41 23 17 0 40 8 50 17
18 16 93 22 157 12 35 -6 38 19 4 32 -45 17 -227 8 -250 -13 -10 -10 -44 -20
-76 -24 -31 -4 -62 -13 -68 -20 -14 -17 -149 -20 -149 -3 0 5 -15 16 -34 24
-19 8 -37 19 -41 25 -3 5 -16 10 -28 10 -12 0 -33 7 -47 15 -14 8 -35 19 -48
25 -31 13 -19 30 22 30 19 0 39 7 46 15 19 22 83 19 105 -5 10 -11 36 -23 56
-26 21 -4 44 -13 50 -20 14 -17 43 -18 70 -4 10 6 45 12 76 14 36 2 59 8 61
16 4 10 -10 12 -66 7 -52 -4 -75 -2 -88 8 -11 8 -37 15 -59 15 -30 0 -50 8
-78 31 -37 31 -39 31 -112 24 -44 -4 -79 -12 -86 -21 -7 -9 -31 -14 -65 -14
-43 0 -55 -4 -64 -20 -6 -11 -19 -20 -30 -20 -11 0 -24 9 -30 20 -8 16 -21 20
-57 20 -27 0 -53 6 -63 15 -9 8 -47 16 -95 20 -79 6 -80 6 -113 -25z m309 -59
c23 -19 24 -19 5 -40 -12 -13 -31 -21 -53 -21 -38 0 -39 5 -17 48 18 37 32 40
65 13z m165 2 c3 -10 10 -26 15 -35 14 -27 12 -28 -29 -28 -26 0 -45 7 -56 19
-16 18 -16 20 5 40 28 26 58 27 65 4z m-83 -83 c12 -31 21 -37 32 -20 10 15
132 13 142 -3 10 -17 86 -47 117 -47 13 0 30 -7 37 -16 10 -13 29 -15 91 -12
137 6 84 -28 -61 -39 -53 -4 -71 -1 -103 17 -21 12 -46 19 -54 16 -10 -4 -23
3 -34 16 -15 19 -31 24 -107 29 -48 3 -130 3 -181 0 -83 -6 -95 -9 -111 -30
-10 -13 -23 -21 -29 -17 -6 4 -30 -2 -54 -14 -44 -21 -168 -29 -168 -11 0 6
-19 11 -42 13 -76 5 -37 23 43 20 59 -3 78 0 88 12 8 9 24 16 37 16 31 0 106
29 120 46 13 17 144 20 144 4 0 -5 5 -10 10 -10 6 0 10 6 10 14 0 19 27 46 47
46 8 0 20 -13 26 -30z m-585 -56 c16 -5 15 -15 -6 -42 -15 -20 -22 -22 -45
-13 -19 7 -27 18 -27 34 0 13 3 27 6 30 6 6 37 2 72 -9z m1187 -14 c0 -16 -9
-29 -28 -40 -26 -14 -29 -14 -47 10 -25 32 -21 43 16 51 46 11 59 6 59 -21z
m-600 -20 c21 -8 26 -16 23 -38 -3 -26 -6 -27 -60 -30 l-58 -3 0 31 c0 43 42
60 95 40z"></path>
<path d="M2540 2226 c0 -7 11 -25 25 -40 23 -25 29 -27 100 -24 41 2 76 7 78
13 2 10 -45 24 -110 32 -23 3 -47 11 -54 19 -15 18 -39 18 -39 0z"></path>
<path d="M4400 2225 c-7 -9 -29 -15 -51 -15 -22 0 -47 -4 -57 -9 -9 -5 -25
-12 -35 -15 -38 -12 -3 -26 64 -26 66 0 72 2 99 32 16 17 27 35 24 40 -8 13
-30 9 -44 -7z"></path>
<path d="M3028 1833 c-10 -2 -18 -9 -18 -15 0 -5 7 -7 16 -4 9 3 36 6 60 6 24
0 44 5 44 10 0 10 -69 12 -102 3z"></path>
<path d="M3850 1832 c0 -6 26 -12 58 -14 59 -4 70 -3 59 9 -12 11 -117 16
-117 5z"></path>
<path d="M2787 1813 c-10 -10 13 -33 33 -33 10 0 23 -7 30 -15 7 -8 23 -15 35
-15 12 0 28 -7 35 -15 7 -8 20 -15 30 -15 9 0 25 -9 35 -20 25 -27 158 -29
187 -3 14 13 38 17 91 18 70 0 74 -1 121 -40 45 -36 54 -40 106 -40 52 0 61 4
106 40 47 39 51 40 121 40 53 -1 77 -5 91 -18 14 -13 37 -17 100 -17 71 0 83
3 92 20 6 11 21 20 34 20 13 0 29 7 36 15 7 8 21 15 31 15 10 0 21 5 24 10 3
6 14 10 24 10 10 0 26 9 36 20 16 17 16 20 2 26 -9 3 -26 -1 -39 -10 -15 -11
-33 -14 -54 -10 -23 4 -33 2 -37 -10 -3 -8 -22 -18 -42 -22 -19 -3 -38 -10
-41 -15 -7 -12 -157 -12 -169 0 -19 17 -120 22 -141 6 -10 -8 -27 -15 -37 -15
-9 0 -37 -18 -61 -40 -46 -42 -75 -49 -121 -28 -14 6 -25 17 -25 25 0 7 -17
21 -37 29 -21 9 -50 22 -64 30 -27 14 -135 9 -145 -7 -7 -12 -151 -12 -158 0
-3 5 -21 12 -40 15 -19 4 -40 14 -47 22 -9 11 -23 14 -43 10 -19 -3 -38 0 -50
9 -21 16 -39 19 -49 8z"></path>
<path d="M2854 1678 c-9 -14 50 -68 75 -68 10 0 24 -6 30 -14 26 -31 280 -27
343 5 11 5 20 3 28 -7 7 -8 30 -17 51 -20 21 -4 46 -15 55 -25 22 -25 84 -25
115 -1 13 11 38 22 54 26 17 4 38 15 47 23 12 11 22 13 30 6 37 -29 306 -37
336 -10 10 8 29 17 45 21 32 8 67 39 67 61 0 19 -11 19 -36 0 -10 -8 -31 -15
-45 -15 -15 0 -32 -6 -38 -14 -15 -18 -142 -40 -189 -32 -20 3 -49 15 -64 26
-32 24 -65 26 -88 5 -10 -9 -41 -19 -69 -24 -29 -5 -57 -13 -64 -20 -15 -15
-73 -14 -100 3 -12 8 -43 17 -69 20 -25 4 -52 14 -58 21 -18 22 -55 18 -96
-10 -23 -16 -51 -25 -74 -25 -54 0 -153 21 -171 36 -8 8 -23 14 -33 14 -9 0
-30 7 -46 15 -21 11 -31 12 -36 3z"></path>
<path d="M2858 1565 c-3 -3 2 -21 11 -40 16 -34 47 -50 89 -46 12 1 25 -4 28
-13 8 -21 70 -22 78 0 3 8 14 14 23 13 26 -3 71 11 84 27 14 17 134 20 144 3
6 -9 47 -29 70 -33 6 -1 22 -14 37 -29 37 -37 98 -38 134 -2 14 14 31 25 39
25 8 0 17 5 20 10 3 6 14 10 24 10 10 0 24 7 31 15 17 20 123 21 140 0 6 -7
31 -17 55 -21 25 -3 50 -12 56 -20 16 -19 66 -18 77 2 6 11 17 15 31 11 31 -8
72 17 87 53 19 44 -7 52 -47 14 -28 -27 -34 -28 -109 -27 -44 1 -88 7 -99 13
-11 5 -35 10 -55 10 -19 0 -38 5 -41 10 -15 24 -131 1 -150 -31 -4 -5 -14 -9
-24 -9 -9 0 -22 -5 -29 -12 -6 -6 -17 -13 -24 -15 -49 -12 -76 -12 -98 1 -14
8 -35 20 -47 25 -11 5 -24 15 -28 20 -3 6 -14 11 -24 11 -10 0 -23 6 -29 13
-13 15 -79 14 -95 -2 -6 -6 -26 -11 -45 -11 -18 0 -42 -5 -53 -10 -11 -6 -55
-12 -99 -13 -74 -1 -81 1 -108 26 -27 26 -43 33 -54 22z"></path>
<path d="M2884 1405 c3 -9 6 -21 6 -26 0 -5 6 -9 14 -9 7 0 19 -7 26 -15 7 -8
20 -15 30 -15 9 0 25 -9 35 -20 15 -17 31 -20 94 -20 69 0 139 15 157 33 23
23 91 0 176 -60 60 -42 90 -42 142 0 85 70 134 81 204 47 30 -15 61 -20 120
-20 66 0 82 3 97 20 10 11 26 20 35 20 10 0 23 7 30 15 7 8 16 12 21 9 10 -6
29 36 23 48 -4 7 -46 -2 -54 -11 -27 -31 -213 -54 -256 -30 -12 6 -30 9 -38 6
-9 -4 -27 -1 -41 5 -19 9 -29 8 -49 -6 -14 -9 -31 -16 -39 -16 -7 0 -32 -18
-56 -40 -29 -27 -52 -40 -71 -40 -19 0 -42 13 -71 40 -24 22 -49 40 -56 40 -8
0 -25 8 -39 17 -19 12 -30 14 -43 6 -9 -6 -30 -8 -47 -6 -18 3 -35 0 -38 -6
-9 -13 -162 -15 -170 -2 -3 5 -23 12 -43 16 -21 4 -40 10 -43 14 -3 5 -18 11
-34 15 -24 6 -27 4 -22 -9z"></path>
<path d="M427 1373 c-4 -3 -7 -179 -7 -390 l0 -383 575 0 575 0 0 -125 0 -125
1920 0 1919 0 3 122 3 123 573 3 572 2 0 390 0 390 -1080 0 -1079 0 -3 -137
-3 -138 -902 -3 -902 -2 -3 137 -3 138 -1076 3 c-591 1 -1079 -1 -1082 -5z
m1813 -95 c-25 -5 -54 -13 -65 -18 -19 -8 -50 -16 -237 -55 -40 -9 -80 -19
-88 -24 -9 -5 -36 -12 -60 -16 -25 -4 -49 -11 -55 -15 -15 -11 -126 -31 -136
-24 -5 3 -12 -2 -15 -10 -3 -9 -17 -16 -30 -16 l-24 0 0 -214 0 -213 -31 -7
c-51 -10 -942 -7 -959 4 -12 8 -8 16 25 50 21 22 43 40 49 40 5 0 42 30 81 68
39 37 92 87 118 111 26 24 47 47 47 51 0 5 -24 27 -52 51 -29 24 -84 73 -123
109 -38 36 -79 73 -90 81 -11 8 -29 24 -39 37 l-19 22 874 -1 c572 -1 858 -4
829 -11z m4175 -28 c-21 -22 -44 -40 -50 -40 -6 0 -33 -23 -60 -51 -28 -28
-80 -75 -117 -106 -38 -30 -68 -58 -68 -62 0 -12 62 -72 100 -97 19 -13 80
-66 135 -119 81 -77 97 -97 85 -105 -16 -11 -947 -14 -974 -4 -14 5 -16 34
-16 220 0 208 -1 214 -20 214 -11 0 -23 7 -27 16 -3 8 -12 13 -19 10 -16 -6
-124 13 -139 24 -5 4 -30 11 -55 15 -25 4 -49 11 -55 15 -5 4 -39 12 -75 19
-36 6 -74 16 -85 21 -11 5 -54 16 -95 25 -210 45 -246 43 695 44 l879 1 -39
-40z m-1065 -540 l0 -320 -1860 0 -1860 0 0 320 0 320 1860 0 1860 0 0 -320z"></path>
<path d="M2740 840 c0 -6 30 -10 70 -10 40 0 70 4 70 10 0 6 -30 10 -70 10
-40 0 -70 -4 -70 -10z"></path>
<path d="M3100 840 c0 -6 32 -10 75 -10 43 0 75 4 75 10 0 6 -32 10 -75 10
-43 0 -75 -4 -75 -10z"></path>
<path d="M3363 838 c2 -7 14 -13 27 -13 13 0 25 6 28 13 2 8 -7 12 -28 12 -21
0 -30 -4 -27 -12z"></path>
<path d="M3574 843 c-29 -4 -31 -7 -30 -41 1 -33 -2 -37 -24 -37 -22 0 -25 4
-26 35 0 30 -3 35 -24 35 -21 0 -24 -5 -24 -35 -1 -32 -4 -35 -36 -40 -31 -4
-35 -9 -38 -37 -5 -48 13 -73 52 -73 37 0 62 22 68 60 2 19 9 25 28 25 20 0
26 -6 28 -28 2 -16 1 -36 -3 -45 -9 -24 -7 -26 17 -27 14 0 27 -10 35 -26 13
-26 55 -45 73 -34 17 10 11 25 -9 25 -11 0 -31 14 -45 31 -25 29 -27 37 -24
113 2 57 7 81 16 81 13 0 19 19 5 21 -4 0 -22 -1 -39 -3z m-126 -135 c-2 -25
-8 -33 -23 -33 -20 0 -31 25 -21 51 3 8 15 14 26 14 18 0 21 -5 18 -32z"></path>
<path d="M3780 834 c0 -12 6 -15 23 -10 12 3 28 6 35 6 6 0 12 5 12 10 0 6
-16 10 -35 10 -26 0 -35 -4 -35 -16z"></path>
<path d="M4000 840 c0 -5 14 -10 30 -10 17 0 30 5 30 10 0 6 -13 10 -30 10
-16 0 -30 -4 -30 -10z"></path>
<path d="M4193 838 c2 -9 25 -13 63 -13 66 0 84 3 84 16 0 5 -34 9 -76 9 -56
0 -75 -3 -71 -12z"></path>
<path d="M4426 843 c-4 -4 -19 -7 -33 -8 -24 0 -27 -4 -27 -35 -1 -29 -5 -36
-24 -38 -13 -2 -32 4 -43 14 -18 16 -20 16 -37 1 -10 -10 -27 -17 -37 -17 -10
0 -26 -7 -35 -15 -15 -14 -18 -14 -30 0 -8 9 -29 15 -57 15 -40 0 -44 2 -38
20 4 14 2 20 -9 20 -20 0 -37 -32 -26 -50 4 -7 6 -28 3 -47 -5 -27 -1 -39 18
-59 21 -23 30 -25 72 -20 43 5 50 2 78 -25 31 -30 59 -35 67 -11 2 7 -5 12
-15 12 -18 0 -63 38 -63 53 0 3 16 3 35 0 44 -7 75 17 75 59 0 26 3 28 36 28
l37 0 -6 -53 c-5 -53 -5 -54 21 -54 l27 0 0 96 c0 86 2 96 18 93 10 -2 17 3
17 13 0 16 -12 20 -24 8z m-290 -128 c-5 -21 -3 -25 15 -25 26 0 21 -17 -13
-37 -33 -21 -54 -12 -63 27 -8 37 8 60 42 60 22 0 24 -3 19 -25z m119 -10 c0
-25 -4 -30 -25 -30 -28 0 -39 27 -19 51 20 24 44 13 44 -21z"></path>
<path d="M2546 775 c1 -36 7 -71 14 -80 15 -18 53 -20 82 -4 11 6 22 8 25 5
10 -9 -28 -46 -47 -46 -10 0 -28 -9 -41 -19 -19 -16 -22 -22 -12 -32 11 -10
19 -7 46 19 30 29 36 31 67 22 19 -6 35 -10 35 -10 0 0 -1 46 -2 102 -2 101
-3 103 -26 106 -23 3 -24 1 -20 -41 4 -36 1 -48 -20 -72 -21 -25 -27 -28 -41
-16 -11 10 -16 30 -16 72 0 55 -2 59 -22 59 -22 0 -23 -4 -22 -65z"></path>
<path d="M2913 818 c2 -22 -2 -23 -68 -26 -38 -2 -75 -7 -81 -13 -27 -22 -2
-119 31 -119 6 0 20 -9 30 -20 10 -11 24 -20 31 -20 20 0 28 21 13 31 -12 8
-11 11 4 20 20 12 23 49 5 67 -7 7 -29 12 -50 12 -21 0 -38 5 -38 10 0 7 24
10 63 8 l62 -3 0 -55 c-1 -30 -3 -62 -5 -70 -4 -11 3 -15 24 -15 l29 0 -1 105
-1 105 -25 3 c-22 3 -26 0 -23 -20z m-74 -102 c9 -10 8 -16 -4 -26 -13 -11
-19 -10 -35 5 -11 10 -20 22 -20 27 0 13 47 9 59 -6z"></path>
<path d="M3023 752 c0 -49 -3 -94 -7 -100 -9 -14 15 -25 41 -20 10 2 16 11 14
19 -2 8 -4 53 -3 102 1 85 1 87 -22 87 -23 0 -24 -2 -23 -88z"></path>
<path d="M3283 818 c2 -22 -1 -23 -78 -26 -67 -2 -83 -6 -97 -23 -38 -45 -10
-109 46 -109 41 0 54 14 58 65 3 38 4 40 38 40 35 0 35 0 38 -48 2 -27 -2 -55
-8 -62 -13 -16 -3 -23 28 -21 23 2 24 5 24 102 l0 99 -26 3 c-22 3 -26 0 -23
-20z m-95 -76 c2 -13 -4 -32 -14 -43 -16 -18 -18 -18 -36 -3 -22 21 -23 32 -1
56 22 24 47 19 51 -10z"></path>
<path d="M3929 833 c-1 -4 0 -20 1 -35 2 -30 -14 -38 -24 -13 -10 26 -71 19
-95 -11 -30 -38 -26 -71 11 -106 24 -22 29 -31 18 -38 -7 -4 -10 -15 -6 -25 5
-14 11 -13 45 14 21 17 40 29 42 27 2 -2 15 -6 29 -9 l25 -6 -2 102 c-2 94 -4
102 -23 105 -11 2 -20 0 -21 -5z m-31 -69 c33 -16 40 -28 22 -39 -6 -4 -24 7
-41 24 -34 34 -28 39 19 15z m6 -79 c-3 -7 -12 -16 -19 -19 -18 -7 -59 49 -51
70 5 13 12 11 40 -11 20 -15 33 -32 30 -40z"></path>
<path d="M4120 815 c0 -30 25 -34 40 -6 14 28 13 31 -15 31 -20 0 -25 -5 -25
-25z"></path>
<path d="M2893 1273 c-7 -17 20 -43 46 -43 8 0 23 -8 34 -17 16 -15 40 -18
168 -17 125 1 152 3 168 18 16 15 19 15 31 1 7 -8 30 -18 52 -21 23 -4 43 -14
49 -25 14 -26 84 -26 98 0 6 11 26 21 49 25 22 3 45 13 52 21 12 14 15 14 31
-1 16 -14 43 -17 168 -18 129 -1 152 1 168 17 11 9 29 17 40 17 25 0 47 24 40
43 -6 17 -64 11 -87 -8 -15 -13 -87 -33 -151 -42 -36 -5 -109 23 -124 47 -9
15 -46 12 -66 -6 -10 -9 -37 -18 -61 -21 -24 -3 -52 -12 -63 -19 -25 -18 -65
-18 -90 0 -11 7 -41 16 -67 20 -25 4 -52 14 -58 21 -14 17 -56 20 -65 5 -15
-24 -88 -52 -124 -47 -56 8 -137 31 -152 43 -8 6 -29 14 -47 17 -25 5 -34 3
-39 -10z"></path>
</g>
</svg>